HIERARCHY
ROOT hip
{
	OFFSET 0.000000 0.000000 0.000000 
	CHANNELS 6 Xposition Yposition Zposition Xrotation Zrotation Yrotation
	JOINT abdomen
	{
		OFFSET 0.000000 3.402643 0.000000 
		CHANNELS 3 Xrotation Zrotation Yrotation
		JOINT chest
		{
			OFFSET 0.000000 8.438565 -0.680529 
			CHANNELS 3 Xrotation Zrotation Yrotation
			JOINT neck
			{
				OFFSET 0.000000 10.207942 -0.272212 
				CHANNELS 3 Xrotation Zrotation Yrotation
				JOINT head
				{
					OFFSET 0.000000 3.130431 0.000000 
					CHANNELS 3 Xrotation Zrotation Yrotation
					End Site
					{
						OFFSET 0.000000 3.130435 0.000000 
					}
				}
			}
			JOINT lCollar
			{
				OFFSET 3.470700 6.669187 -0.816635 
				CHANNELS 3 Yrotation Zrotation Xrotation
				JOINT lShldr
				{
					OFFSET 3.198488 0.000000 0.000000 
					CHANNELS 3 Zrotation Yrotation Xrotation
					JOINT lForeArm
					{
						OFFSET 10.139888 0.000000 0.000000 
						CHANNELS 3 Yrotation Zrotation Xrotation
						JOINT lHand
						{
							OFFSET 8.370511 0.000000 0.000000 
							CHANNELS 3 Zrotation Yrotation Xrotation
							End Site
							{
								OFFSET 4.083176 0.000000 0.000000 
							}
						}
					}
				}
			}
			JOINT rCollar
			{
				OFFSET -3.470700 6.669187 -0.816635 
				CHANNELS 3 Yrotation Zrotation Xrotation
				JOINT rShldr
				{
					OFFSET -3.198488 0.000000 0.000000 
					CHANNELS 3 Zrotation Yrotation Xrotation
					JOINT rForeArm
					{
						OFFSET -10.139888 0.000000 0.000000 
						CHANNELS 3 Yrotation Zrotation Xrotation
						JOINT rHand
						{
							OFFSET -8.370511 0.000000 0.000000 
							CHANNELS 3 Zrotation Yrotation Xrotation
							End Site
							{
								OFFSET -4.083176 0.000000 0.000000 
							}
						}
					}
				}
			}
		}
	}
	JOINT lThigh
	{
		OFFSET 5.308129 -1.633274 1.361059 
		CHANNELS 3 Xrotation Zrotation Yrotation
		JOINT lShin
		{
			OFFSET -2.041588 -20.007561 0.000000 
			CHANNELS 3 Xrotation Zrotation Yrotation
			JOINT lFoot
			{
				OFFSET 0.000000 -19.190928 -1.224953 
				CHANNELS 3 Xrotation Yrotation Zrotation
				End Site
				{
					OFFSET 0.000000 -2.449906 4.627600 
				}
			}
		}
	}
	JOINT rThigh
	{
		OFFSET -5.308129 -1.633274 1.361059 
		CHANNELS 3 Xrotation Zrotation Yrotation
		JOINT rShin
		{
			OFFSET 2.041588 -20.007561 0.000000 
			CHANNELS 3 Xrotation Zrotation Yrotation
			JOINT rFoot
			{
				OFFSET 0.000000 -19.190928 -1.224953 
				CHANNELS 3 Xrotation Yrotation Zrotation
				End Site
				{
					OFFSET 0.000000 -2.449906 4.627600 
				}
			}
		}
	}
}
MOTION
Frames: 20
Frame Time: 0.016667
-0.237490 46.595921 -1.756241 3.184460 -4.680290 -4.391690 -21.449200 2.057940 1.122040 12.646200 -0.512653 0.842713 15.970000 -1.575100 -2.171090 13.528700 3.255170 -0.369980 2.000000 -2.000000 0.000000 -85.113701 -38.990601 -157.449997 98.125504 -0.194145 0.154820 -179.904999 -179.882996 -3.738080 -2.000000 2.000000 0.000000 68.664101 31.898600 -169.307007 -105.342003 0.181259 0.112672 179.893997 179.882004 -4.118920 9.192847 3.683403 -4.869044 -16.276821 5.869764 -1.265773 1.205985 19.599186 -0.408624 0.359121 4.771318 -1.843820 3.467438 -4.136025 -0.143841 -13.646432 -8.364045 -2.080534 
-0.231218 46.575329 -1.784303 2.811890 -4.623360 -4.513990 -21.488001 2.007500 1.098780 12.607200 -0.454574 0.825193 16.445299 -1.642180 -2.125240 13.704200 3.204990 -0.329146 2.000000 -2.000000 0.000000 -85.250298 -38.941799 -157.431000 97.734901 -0.195134 0.154957 -179.904999 -179.882996 -3.738080 -2.000000 2.000000 0.000000 68.722801 31.976200 -169.110992 -104.892998 0.182220 0.112932 179.893997 179.882004 -4.118920 9.890707 3.433974 -4.748147 -16.885366 6.206963 -1.321716 1.535362 19.593323 -0.572230 0.728710 4.655561 -1.751591 3.455746 -4.133068 -0.143263 -13.620497 -8.231780 -2.041291 
-0.212536 46.550365 -1.823678 2.429930 -4.663790 -4.709550 -21.458099 1.978280 1.132060 12.704800 -0.483704 0.838186 16.824100 -1.681390 -2.094350 13.840700 3.174520 -0.306965 2.000000 -2.000000 0.000000 -85.406197 -38.814602 -157.352997 97.402901 -0.195975 0.155069 -179.904999 -179.882996 -3.747840 -2.000000 2.000000 0.000000 68.751900 31.946501 -168.906006 -104.628998 0.182785 0.113081 179.895004 179.882996 -3.874780 10.513934 3.293781 -4.392357 -17.298216 6.363966 -1.355354 1.882951 19.424316 -0.712796 1.080678 4.656870 -1.614492 3.506001 -4.154167 -0.134249 -13.616183 -8.249618 -2.018076 
-0.196327 46.535042 -1.848189 2.165440 -4.684170 -4.815800 -21.418400 1.917240 1.136080 12.802400 -0.532198 0.834184 16.935900 -1.585650 -2.147350 13.880200 3.202930 -0.329087 2.000000 -2.000000 0.000000 -85.464500 -38.736401 -157.294998 97.236900 -0.196396 0.155123 -179.904999 -179.882996 -3.718550 -2.000000 2.000000 0.000000 68.820000 31.828899 -168.731003 -104.667999 0.182701 0.113059 179.895004 179.882996 -3.962670 10.916163 3.208908 -4.325394 -17.571718 6.473649 -1.379473 2.015026 19.499949 -0.781534 1.352755 4.666668 -1.524605 3.516138 -4.171175 -0.134422 -13.572318 -8.293961 -2.004117 
-0.180902 46.519608 -1.874443 1.881240 -4.665460 -4.879920 -21.349600 1.865510 1.137110 12.968400 -0.513046 0.820297 17.127800 -1.456220 -2.224240 13.958900 3.240480 -0.366816 2.000000 -2.000000 0.000000 -85.610603 -38.579899 -157.197006 97.119698 -0.196694 0.155161 -179.904999 -179.882996 -3.659950 -2.000000 2.000000 0.000000 68.731903 31.760099 -168.565002 -104.697998 0.182638 0.113042 179.893997 179.882004 -4.187280 11.331058 3.128746 -4.476064 -17.776604 6.569523 -1.380672 2.032995 19.756401 -0.804799 1.633386 4.591423 -1.498932 3.526307 -4.175870 -0.144218 -13.515888 -8.253300 -1.990134 
-0.178501 46.511620 -1.890215 1.724320 -4.607300 -4.953340 -21.377600 1.781180 1.190330 12.997700 -0.542123 0.843419 17.322001 -1.301760 -2.330630 14.008000 3.259120 -0.419266 2.000000 -2.000000 0.000000 -85.619598 -38.335499 -157.061005 97.070900 -0.196818 0.155176 -179.904999 -179.882996 -3.591600 -2.000000 2.000000 0.000000 68.770401 31.486500 -168.496994 -104.794998 0.182429 0.112987 179.893997 179.882004 -4.441180 11.485810 3.062247 -4.513923 -17.752935 6.549139 -1.385787 1.917067 19.813433 -0.763473 1.587137 4.484592 -1.522308 3.568520 -4.177990 -0.134165 -13.317760 -8.198368 -1.965817 
-0.170039 46.494511 -1.908459 1.548190 -4.705320 -5.078580 -21.358000 1.756290 1.179550 13.114900 -0.522902 0.830015 17.295401 -1.424580 -2.398950 13.948700 3.202120 -0.452221 2.000000 -2.000000 0.000000 -85.570396 -38.111099 -157.149994 97.012299 -0.196966 0.155195 -179.904999 -179.882996 -3.640420 -2.000000 2.000000 0.000000 68.799202 31.251600 -168.283005 -104.892998 0.182220 0.112932 179.891998 179.880005 -5.075970 11.775714 3.054876 -4.242749 -17.973583 6.631108 -1.395414 2.172346 19.708788 -0.855626 1.744663 4.558224 -1.440550 3.564660 -4.168933 -0.144113 -13.247338 -8.169065 -1.934113 
-0.165742 46.486523 -1.922794 1.401270 -4.734920 -5.125870 -21.357500 1.707390 1.188180 13.144200 -0.513253 0.828488 17.554701 -1.239970 -2.444230 14.056800 3.248920 -0.467019 2.000000 -2.000000 0.000000 -85.511497 -37.974300 -157.121002 96.973198 -0.197065 0.155207 -179.904999 -179.882996 -3.689250 -2.000000 2.000000 0.000000 68.788803 30.909500 -168.162003 -104.981003 0.182032 0.112881 179.891006 179.880005 -5.603310 12.159817 2.942331 -4.121592 -18.442881 6.863441 -1.437616 2.500844 19.652773 -1.016265 1.881714 4.569387 -1.434314 3.564565 -4.169015 -0.144121 -13.197837 -8.117620 -1.914290 
-0.156266 46.478031 -1.942542 1.273880 -4.735160 -5.173980 -21.337200 1.659810 1.228440 13.193100 -0.484255 0.843827 17.750799 -0.847627 -2.519770 14.126800 3.373070 -0.499492 2.000000 -2.000000 0.000000 -85.413498 -37.876499 -157.042999 96.973198 -0.197065 0.155207 -179.904007 -179.882004 -4.128700 -2.000000 2.000000 0.000000 68.475700 30.547899 -168.046005 -105.079002 0.181823 0.112825 179.889008 179.878006 -6.531040 12.419827 2.894903 -4.281271 -18.662321 6.977169 -1.444579 2.605552 19.843466 -1.076690 1.980159 4.552998 -1.454175 3.565918 -4.180702 -0.144176 -13.134957 -8.130179 -1.905316 
-0.147771 46.472244 -1.959978 1.156240 -4.706080 -5.212540 -21.316900 1.574650 1.251580 13.212600 -0.503647 0.836393 17.996201 -0.586423 -2.622340 14.186300 3.430000 -0.544312 2.000000 -2.000000 0.000000 -85.159599 -37.818100 -157.130997 96.943901 -0.197140 0.155216 -179.903000 -179.882004 -4.372840 -2.000000 2.000000 0.000000 68.221100 30.244600 -167.792007 -105.098000 0.181781 0.112814 179.888000 179.876999 -7.234160 12.466233 2.877797 -4.236895 -18.553406 6.875508 -1.441982 2.552553 19.870821 -1.038087 2.076276 4.491081 -1.458255 3.574723 -4.173181 -0.144132 -13.081619 -8.102626 -1.896849 
-0.145145 46.461426 -1.973773 0.979880 -4.716110 -5.295950 -21.014400 1.572030 1.216600 13.759700 -0.261819 0.812455 18.143299 -0.267161 -2.690490 14.226800 3.535220 -0.581569 2.000000 -2.000000 0.000000 -84.828598 -38.199402 -157.354004 96.768097 -0.197586 0.155270 -179.903000 -179.880997 -4.568150 -2.000000 2.000000 0.000000 67.420097 30.214600 -167.479996 -105.195999 0.181572 0.112758 -0.115450 0.125943 171.360001 12.770246 2.804540 -4.086809 -18.794952 6.958693 -1.463273 2.666167 19.816017 -1.068388 2.232716 4.470953 -1.432914 3.568017 -4.178912 -0.143997 -12.996865 -8.016985 -1.856097 
-0.141924 46.450619 -1.982074 0.862344 -4.755320 -5.335730 -20.896999 1.554540 1.225560 13.945300 -0.184313 0.812378 18.460400 0.136696 -2.773650 14.326400 3.668430 -0.618875 2.000000 -2.000000 0.000000 -84.428299 -38.180099 -157.442001 96.836502 -0.197412 0.155249 -179.901993 -179.880997 -4.958800 -2.000000 2.000000 0.000000 66.677299 29.920900 -167.177994 -105.274002 0.181405 0.112712 -0.119119 0.128753 169.709000 12.885288 2.837305 -3.898861 -18.802885 6.878878 -1.458696 2.736986 19.682158 -1.086534 2.347286 4.493019 -1.447638 3.566472 -4.179737 -0.134340 -12.986291 -7.979814 -1.836093 
-0.137266 46.437366 -1.981288 0.735015 -4.814060 -5.384560 -21.206200 1.335330 1.419780 13.388300 -0.581358 0.893424 19.295601 1.301090 -2.943830 14.527300 4.021000 -0.716410 2.000000 -2.000000 0.000000 -83.254501 -37.466499 -157.112000 97.041603 -0.196892 0.155186 -179.899994 -179.878998 -5.808400 -2.000000 2.000000 0.000000 66.049797 28.542400 -166.498001 -105.430000 0.181071 0.112620 -0.122531 0.131221 168.205002 13.223763 2.817009 -3.810449 -19.204268 7.011103 -1.492844 2.965308 19.682354 -1.165228 2.482895 4.524008 -1.459365 3.568052 -4.178885 -0.143994 -12.963853 -7.896298 -1.824279 
-0.134744 46.429390 -1.969908 0.656595 -4.794610 -5.416840 -21.175900 1.217080 1.465980 13.446900 -0.610504 0.906220 19.979700 1.943110 -3.025100 14.736000 4.219370 -0.761667 2.000000 -2.000000 0.000000 -82.823700 -36.929298 -157.113007 97.061096 -0.196842 0.155179 -179.899994 -179.878998 -5.984190 -2.000000 2.000000 0.000000 65.130302 27.730301 -165.826004 -105.683998 0.180529 0.112470 -0.127309 0.134456 166.145004 13.368054 2.753794 -3.770028 -19.274250 7.049003 -1.501559 2.965024 19.682402 -1.165096 2.582531 4.493573 -1.470737 3.564272 -4.182105 -0.143605 -12.930168 -7.841272 -1.793744 
-0.137605 46.421795 -1.959393 0.548764 -4.755640 -5.573490 -21.056000 1.002330 1.644180 13.612600 -0.775520 0.973347 20.719101 3.111530 -3.226020 14.937500 4.551820 -0.887114 2.000000 -2.000000 0.000000 -81.806198 -36.283798 -156.660995 97.510300 -0.195703 0.155034 -179.897003 -179.876007 -7.273240 -2.000000 2.000000 0.000000 63.897301 26.331699 -164.901001 -106.289001 0.179240 0.112100 -0.132201 0.137516 164.084000 13.644778 2.605141 -3.602996 -19.517784 7.185589 -1.533872 3.008885 19.664396 -1.201476 2.689958 4.434570 -1.385639 3.565446 -4.181105 -0.144217 -12.893733 -7.783234 -1.782378 
-0.140277 46.406349 -1.960236 0.391980 -4.765510 -5.707090 -20.868200 0.827150 1.816850 13.798000 -0.911591 1.035750 21.238701 4.277200 -3.333760 15.081800 4.942380 -0.964936 2.000000 -2.000000 0.000000 -81.032700 -35.579498 -156.115997 97.959503 -0.194565 0.154879 -179.895996 -179.875000 -8.093550 -2.000000 2.000000 0.000000 62.976799 24.815800 -163.962006 -106.885002 0.177975 0.111723 -0.133611 0.138354 163.498001 13.824883 2.573326 -3.361107 -19.532894 7.113495 -1.520947 3.117918 19.587715 -1.205240 2.845173 4.410815 -1.292227 3.568570 -4.177946 -0.134161 -12.905671 -7.701954 -1.762866 
-0.144914 46.385376 -1.967201 0.166615 -4.863260 -5.874280 -20.522900 0.525588 2.097400 14.080500 -1.242030 1.146800 22.035999 5.696520 -3.578410 15.344700 5.339690 -1.125670 2.000000 -2.000000 0.000000 -80.609200 -34.239601 -155.190994 98.652901 -0.192811 0.154623 0.105727 -0.125978 171.339996 -2.000000 2.000000 0.000000 62.709301 21.962000 -162.962997 -108.281998 0.175025 0.110789 -0.138086 0.140885 161.662003 14.361944 2.500024 -3.066500 -20.082209 7.327685 -1.557109 3.508750 19.523201 -1.376262 3.065804 4.490545 -1.182935 3.580510 -4.180590 -0.134017 -12.706295 -7.686763 -1.707432 
-0.145372 46.364784 -1.969964 -0.068596 -4.755860 -5.961130 -20.228500 0.212409 2.263480 14.236300 -1.426830 1.202890 22.647900 6.885470 -3.675770 15.539200 5.709000 -1.227100 2.000000 -2.000000 0.000000 -80.615601 -32.870602 -154.334000 99.160698 -0.191528 0.154421 0.106244 -0.126383 171.106003 -2.000000 2.000000 0.000000 62.901600 19.498800 -161.981995 -109.512001 0.172446 0.109906 -0.138470 0.141094 161.505997 14.640260 2.339180 -2.834492 -20.189627 7.261390 -1.576356 3.639482 19.408020 -1.385625 3.295470 4.346589 -1.131253 3.568463 -4.191370 -0.144128 -12.597493 -7.657150 -1.693680 
-0.147830 46.347149 -1.993780 -0.362660 -4.912010 -5.974920 -19.876499 -0.173472 2.430230 14.264600 -1.756940 1.248290 23.527201 8.625660 -3.740440 15.838000 6.295230 -1.348140 2.000000 -2.000000 0.000000 -80.737602 -30.699900 -153.104004 99.863800 -0.189755 0.154124 0.106524 -0.126602 170.979004 -2.000000 2.000000 0.000000 63.406101 16.643999 -160.556000 -110.976997 0.169400 0.108783 -0.135078 0.139205 162.893005 15.213126 2.411994 -2.366349 -20.776424 7.278350 -1.605162 4.016425 19.107611 -1.460738 3.572376 4.472970 -1.157979 3.581939 -4.192223 -0.134066 -12.435319 -7.690035 -1.666183 
-0.158179 46.326298 -2.028211 -0.607790 -5.009490 -5.894390 -19.517599 -0.587276 2.466490 14.332100 -1.999870 1.223800 24.149200 10.046000 -3.724460 16.076599 6.767070 -1.405610 2.000000 -2.000000 0.000000 -80.724297 -29.037800 -152.188995 100.372002 -0.188477 0.153896 0.106610 -0.126669 170.940002 -2.000000 2.000000 0.000000 63.091202 14.824500 -159.192993 -112.460999 0.166345 0.107566 -0.137247 0.140425 162.003998 15.703407 2.404165 -1.680532 -21.499722 7.254450 -1.648943 4.772979 18.471117 -1.653976 3.797433 4.558962 -1.271962 3.577814 -4.183392 -0.144037 -12.225657 -7.691823 -1.661224 
